<svg width="310" height="310" viewBox="0 0 310 310" fill="none" xmlns="http://www.w3.org/2000/svg">
<path fill-rule="evenodd" clip-rule="evenodd" d="M106.825 66.6076C108.357 65.4784 109.89 64.3896 111.463 63.341C121.988 56.2836 133.401 50.8797 145.54 47.1695C157.759 43.4593 170.382 41.6446 183.166 41.6042C196.797 41.5639 210.185 43.54 223.09 47.9761C238.455 53.259 252.328 61.4859 264.427 72.2938C276.807 83.3437 286.204 97.0552 293.301 111.977C300.48 127.14 304.513 143.231 304.956 160.007C305.36 175.937 302.98 191.624 297.617 206.626C292.253 221.669 284.107 235.3 273.581 247.358C262.693 259.779 249.546 269.578 234.624 276.676C219.703 283.733 203.854 287.524 187.36 287.968C171.43 288.371 155.743 286.032 140.7 280.79C125.577 275.507 111.826 267.562 99.5658 257.238C86.7818 246.43 76.7402 233.323 69.5618 218.2L9.06982 90.8044C6.08555 84.4729 4.75473 77.6171 5.03702 70.6404C5.27899 64.6719 6.44851 58.8243 8.58589 53.259C10.7636 47.6534 13.8689 42.5318 17.821 38.0151C22.1361 33.0547 27.2577 29.6672 33.186 26.8845C39.3965 23.9809 45.5666 22.1258 52.4627 22.0048C58.5523 21.9242 64.5208 22.8517 70.2877 24.7068C76.8208 26.8442 82.7087 30.3124 87.7094 34.9905C92.4681 39.3862 96.2993 44.5885 99.0819 50.4361L106.825 66.6076ZM42.4614 46.5243C45.6473 44.7095 49.0752 43.782 52.7854 43.7013C56.4955 43.661 60.0847 44.1852 63.5933 45.3547C67.1018 46.4839 70.207 48.339 72.9897 50.92C75.7723 53.501 77.9097 56.4046 79.4825 59.7115L100.251 103.467C106.946 94.6759 114.729 87.3765 123.561 81.4483C132.393 75.5604 141.87 71.0437 151.912 68.0191C161.953 64.9541 172.398 63.4217 183.287 63.3814C194.135 63.341 205.064 65.0751 216.033 68.5837C229.22 73.5037 240.552 80.1578 249.989 88.5863C259.426 97.0149 267.33 107.944 273.702 121.373C279.711 134.036 282.897 147.143 283.26 160.652C283.623 174.162 281.566 187.067 277.17 199.408C272.775 211.748 266.161 222.959 257.289 233.082C248.416 243.204 237.77 251.189 225.349 257.077C213.17 262.844 200.345 265.909 186.836 266.271C173.326 266.634 160.34 264.618 147.879 260.303C135.417 255.947 124.005 249.414 113.64 240.663C103.276 231.912 95.1297 221.346 89.2419 208.885L28.7499 81.4886C27.2981 78.464 26.6528 75.1168 26.7738 71.4873C26.8948 67.8578 27.6207 64.4299 28.8709 61.1633C30.121 57.9371 31.9358 54.9931 34.2345 52.3315C36.5332 49.6698 39.2755 47.7341 42.4614 46.5243Z" fill="white"  vector-effect="non-scaling-stroke"/>
</svg>
